<svg width="22.568481" height="24.000000" viewBox="0 0 22.5685 24" fill="none" xmlns="http://www.w3.org/2000/svg" xmlns:xlink="http://www.w3.org/1999/xlink">
	<desc>
			Created with Pixso.
	</desc>
	<defs/>
	<path id="Shape" d="M17.87 2.71C17.86 3.46 17.53 4.18 16.97 4.67C16.16 5.29 15.07 5.4 14.15 4.95C13.23 4.51 12.65 3.58 12.64 2.56C12.66 1.82 12.96 1.11 13.49 0.6C13.97 0.22 14.55 0.01 15.15 0C15.88 -0.01 16.57 0.28 17.08 0.79C17.59 1.3 17.87 1.99 17.87 2.71ZM8.11 5.23C8.16 5.18 8.21 5.18 8.21 5.13C10 4.83 11.82 5.2 13.34 6.18C13.67 6.34 13.99 6.53 14.3 6.73C14.37 6.75 14.44 6.78 14.5 6.83C14.45 6.88 14.4 6.88 14.35 6.93C15.42 7.64 16.76 7.8 17.97 7.39C17.97 7.34 18.07 7.34 18.12 7.29C18.95 6.95 19.65 6.37 20.13 5.63C20.17 5.55 20.22 5.48 20.29 5.42C21.39 4.57 23.26 5.83 22.3 7.08C21.91 7.66 21.46 8.18 20.94 8.64C19.27 10.09 16.96 10.57 14.85 9.9C13.95 11.46 13.09 13.02 12.24 14.63C12.59 14.83 12.94 15.03 13.24 15.23L13.14 15.33C14.05 15.94 14.96 16.64 15.51 17.1C16.46 17.8 17.62 20.78 18.33 22.23C18.6 22.71 18.52 23.31 18.12 23.69C17.8 23.95 17.37 24.05 16.96 23.96C16.55 23.88 16.2 23.61 16.01 23.24C15.41 21.93 14.35 19.36 13.75 18.86C12.48 17.85 11.07 17.02 9.57 16.39C9.52 16.39 9.42 16.34 9.37 16.34C7.27 18.96 3.58 19.66 0.67 18C0.23 17.74 -0.02 17.26 0 16.75C0.02 16.25 0.31 15.79 0.76 15.56C1.21 15.33 1.75 15.36 2.18 15.64C4.49 16.95 6.85 15.24 7.96 13.07C9.02 10.96 9.82 9.45 10.68 7.89C8.97 7.34 7.41 7.84 6.15 9.6C5.19 11.01 2.83 9.65 3.84 8.24C4.24 7.68 4.69 7.16 5.19 6.69C6.03 5.97 7.03 5.43 8.11 5.23Z" fill="#FFFFFF" fill-opacity="1.000000" fill-rule="evenodd"/>
</svg>
